<?xml version="1.0" encoding="UTF-8"?>
<svg xmlns="http://www.w3.org/2000/svg" xmlns:xlink="http://www.w3.org/1999/xlink" width="13px" height="13px" viewBox="0 0 13 13" version="1.1">
<g id="surface1">
<path style=" stroke:none;fill-rule:nonzero;fill:rgb(60.392157%,60.392157%,60.392157%);fill-opacity:1;" d="M 4.0625 6.5 L 2.4375 6.5 L 2.4375 4.875 L 4.0625 4.875 Z M 7.3125 4.875 L 5.6875 4.875 L 5.6875 6.5 L 7.3125 6.5 Z M 10.5625 4.875 L 8.9375 4.875 L 8.9375 6.5 L 10.5625 6.5 Z M 4.0625 7.3125 L 2.4375 7.3125 L 2.4375 8.9375 L 4.0625 8.9375 Z M 7.3125 7.3125 L 5.6875 7.3125 L 5.6875 8.9375 L 7.3125 8.9375 Z M 10.5625 7.3125 L 8.9375 7.3125 L 8.9375 8.9375 L 10.5625 8.9375 Z M 4.0625 9.75 L 2.4375 9.75 L 2.4375 11.375 L 4.0625 11.375 Z M 7.3125 9.75 L 5.6875 9.75 L 5.6875 11.375 L 7.3125 11.375 Z M 3.25 2.4375 C 3.699219 2.4375 4.0625 2.074219 4.0625 1.625 L 4.0625 0.8125 C 4.0625 0.363281 3.699219 0 3.25 0 C 2.800781 0 2.4375 0.363281 2.4375 0.8125 L 2.4375 1.625 C 2.4375 2.074219 2.800781 2.4375 3.25 2.4375 Z M 13 1.625 L 13 13 L 0 13 L 0 1.625 L 2.03125 1.625 C 2.03125 2.296875 2.578125 2.84375 3.25 2.84375 C 3.921875 2.84375 4.46875 2.296875 4.46875 1.625 L 8.53125 1.625 C 8.53125 2.296875 9.078125 2.84375 9.75 2.84375 C 10.421875 2.84375 10.96875 2.296875 10.96875 1.625 Z M 12.1875 4.0625 L 0.8125 4.0625 L 0.8125 12.1875 L 12.1875 12.1875 Z M 9.75 2.4375 C 10.199219 2.4375 10.5625 2.074219 10.5625 1.625 L 10.5625 0.8125 C 10.5625 0.363281 10.199219 0 9.75 0 C 9.300781 0 8.9375 0.363281 8.9375 0.8125 L 8.9375 1.625 C 8.9375 2.074219 9.300781 2.4375 9.75 2.4375 Z M 9.75 2.4375 "/>
</g>
</svg>
