<?xml version="1.0" encoding="UTF-8"?>
<svg xmlns="http://www.w3.org/2000/svg" xmlns:xlink="http://www.w3.org/1999/xlink" width="13px" height="13px" viewBox="0 0 13 13" version="1.1">
<g id="surface1">
<path style=" stroke:none;fill-rule:nonzero;fill:#fff;fill-opacity:1;" d="M 6.503906 6.753906 C 7.710938 6.753906 8.75 5.898438 8.988281 4.710938 C 9.222656 3.527344 8.585938 2.339844 7.46875 1.875 C 6.351562 1.414062 5.0625 1.804688 4.390625 2.8125 C 3.71875 3.816406 3.851562 5.15625 4.707031 6.011719 C 5.183594 6.488281 5.828125 6.753906 6.503906 6.753906 Z M 5.117188 2.832031 C 5.777344 2.171875 6.8125 2.070312 7.59375 2.589844 C 8.371094 3.109375 8.671875 4.105469 8.3125 4.96875 C 7.957031 5.835938 7.039062 6.324219 6.121094 6.144531 C 5.203125 5.960938 4.542969 5.15625 4.542969 4.21875 C 4.539062 3.699219 4.746094 3.199219 5.117188 2.832031 Z M 5.117188 2.832031 "/>
<path style=" stroke:none;fill-rule:nonzero;fill:#fff;fill-opacity:1;" d="M 6.503906 7.15625 C 4.355469 7.15625 2.605469 8.902344 2.605469 11.050781 C 2.605469 11.210938 2.734375 11.339844 2.894531 11.339844 L 10.109375 11.339844 C 10.269531 11.339844 10.398438 11.210938 10.398438 11.050781 C 10.398438 8.902344 8.648438 7.15625 6.503906 7.15625 Z M 3.195312 10.761719 C 3.339844 9.066406 4.769531 7.730469 6.503906 7.730469 C 8.234375 7.730469 9.664062 9.066406 9.808594 10.761719 Z M 3.195312 10.761719 "/>
</g>
</svg>
